<?xml version="1.0" encoding="UTF-8" standalone="no"?>
<!DOCTYPE svg PUBLIC "-//W3C//DTD SVG 1.1//EN" "http://www.w3.org/Graphics/SVG/1.1/DTD/svg11.dtd">
<svg width="360" height="360" viewBox="0 0 360 360" version="1.1" xmlns="http://www.w3.org/2000/svg">
<rect x="0" y="0" width="360" height="360" style="fill:white;"/>
<circle cx="180.0" cy="180.0" r="44.98" fill="rgb(255,0,0)" />
<circle cx="205.0" cy="205.0" r="9.6" fill="rgb(255,0,0)" />
<circle cx="230.0" cy="230.0" r="9.0" fill="rgb(255,0,0)" />
<circle cx="255.0" cy="255.0" r="8.18" fill="rgb(255,0,0)" />
<circle cx="280.0" cy="280.0" r="8.0" fill="rgb(255,0,0)" />
<circle cx="305.0" cy="305.0" r="5.06" fill="rgb(255,0,0)" />
<circle cx="330.0" cy="330.0" r="4.7" fill="rgb(255,0,0)" />
<circle cx="355.0" cy="355.0" r="4.48" fill="rgb(255,0,0)" />
<circle cx="380.0" cy="380.0" r="4.42" fill="rgb(255,0,0)" />
<circle cx="405.0" cy="405.0" r="4.2" fill="rgb(255,0,0)" />
<circle cx="430.0" cy="430.0" r="3.86" fill="rgb(255,0,0)" />
<circle cx="455.0" cy="455.0" r="3.2" fill="rgb(255,0,0)" />
<circle cx="480.0" cy="480.0" r="3.16" fill="rgb(255,0,0)" />
<circle cx="505.0" cy="505.0" r="2.74" fill="rgb(255,0,0)" />
<circle cx="530.0" cy="530.0" r="2.58" fill="rgb(255,0,0)" />
<circle cx="555.0" cy="555.0" r="2.38" fill="rgb(255,0,0)" />
<circle cx="580.0" cy="580.0" r="2.22" fill="rgb(255,0,0)" />
<circle cx="605.0" cy="605.0" r="2.14" fill="rgb(255,0,0)" />
<circle cx="630.0" cy="630.0" r="2.02" fill="rgb(255,0,0)" />
<circle cx="655.0" cy="655.0" r="1.84" fill="rgb(255,0,0)" />
<circle cx="680.0" cy="680.0" r="1.84" fill="rgb(255,0,0)" />
<circle cx="705.0" cy="705.0" r="1.66" fill="rgb(255,0,0)" />
<circle cx="730.0" cy="730.0" r="1.5" fill="rgb(255,0,0)" />
<circle cx="755.0" cy="755.0" r="1.26" fill="rgb(255,0,0)" />
<circle cx="780.0" cy="780.0" r="1.24" fill="rgb(255,0,0)" />
<circle cx="805.0" cy="805.0" r="1.2" fill="rgb(255,0,0)" />
<circle cx="830.0" cy="830.0" r="1.2" fill="rgb(255,0,0)" />
<circle cx="855.0" cy="855.0" r="1.08" fill="rgb(255,0,0)" />
<circle cx="880.0" cy="880.0" r="0.98" fill="rgb(255,0,0)" />
<circle cx="905.0" cy="905.0" r="0.94" fill="rgb(255,0,0)" />
<circle cx="930.0" cy="930.0" r="0.86" fill="rgb(255,0,0)" />
<circle cx="955.0" cy="955.0" r="0.8" fill="rgb(255,0,0)" />
<circle cx="980.0" cy="980.0" r="0.78" fill="rgb(255,0,0)" />
<circle cx="1005.0" cy="1005.0" r="0.72" fill="rgb(255,0,0)" />
<circle cx="1030.0" cy="1030.0" r="0.7" fill="rgb(255,0,0)" />
<circle cx="1055.0" cy="1055.0" r="0.68" fill="rgb(255,0,0)" />
<circle cx="1080.0" cy="1080.0" r="0.68" fill="rgb(255,0,0)" />
<circle cx="1105.0" cy="1105.0" r="0.68" fill="rgb(255,0,0)" />
<circle cx="1130.0" cy="1130.0" r="0.64" fill="rgb(255,0,0)" />
<circle cx="1155.0" cy="1155.0" r="0.62" fill="rgb(255,0,0)" />
<circle cx="1180.0" cy="1180.0" r="0.62" fill="rgb(255,0,0)" />
<circle cx="1205.0" cy="1205.0" r="0.6" fill="rgb(255,0,0)" />
<circle cx="1230.0" cy="1230.0" r="0.58" fill="rgb(255,0,0)" />
<circle cx="1255.0" cy="1255.0" r="0.58" fill="rgb(255,0,0)" />
<circle cx="1280.0" cy="1280.0" r="0.56" fill="rgb(255,0,0)" />
<circle cx="1305.0" cy="1305.0" r="0.54" fill="rgb(255,0,0)" />
<circle cx="1330.0" cy="1330.0" r="0.5" fill="rgb(255,0,0)" />
<circle cx="1355.0" cy="1355.0" r="0.46" fill="rgb(255,0,0)" />
<circle cx="1380.0" cy="1380.0" r="0.46" fill="rgb(255,0,0)" />
<circle cx="1405.0" cy="1405.0" r="0.46" fill="rgb(255,0,0)" />
<circle cx="1430.0" cy="1430.0" r="0.46" fill="rgb(255,0,0)" />
<circle cx="1455.0" cy="1455.0" r="0.46" fill="rgb(255,0,0)" />
<circle cx="1480.0" cy="1480.0" r="0.44" fill="rgb(255,0,0)" />
<circle cx="1505.0" cy="1505.0" r="0.42" fill="rgb(255,0,0)" />
<circle cx="1530.0" cy="1530.0" r="0.42" fill="rgb(255,0,0)" />
<circle cx="1555.0" cy="1555.0" r="0.42" fill="rgb(255,0,0)" />
<circle cx="1580.0" cy="1580.0" r="0.42" fill="rgb(255,0,0)" />
<circle cx="1605.0" cy="1605.0" r="0.4" fill="rgb(255,0,0)" />
<circle cx="1630.0" cy="1630.0" r="0.4" fill="rgb(255,0,0)" />
<circle cx="1655.0" cy="1655.0" r="0.36" fill="rgb(255,0,0)" />
<circle cx="1680.0" cy="1680.0" r="0.34" fill="rgb(255,0,0)" />
<circle cx="1705.0" cy="1705.0" r="0.34" fill="rgb(255,0,0)" />
<circle cx="1730.0" cy="1730.0" r="0.32" fill="rgb(255,0,0)" />
<circle cx="1755.0" cy="1755.0" r="0.32" fill="rgb(255,0,0)" />
<circle cx="1780.0" cy="1780.0" r="0.32" fill="rgb(255,0,0)" />
<circle cx="1805.0" cy="1805.0" r="0.32" fill="rgb(255,0,0)" />
<circle cx="1830.0" cy="1830.0" r="0.3" fill="rgb(255,0,0)" />
<circle cx="1855.0" cy="1855.0" r="0.3" fill="rgb(255,0,0)" />
<circle cx="1880.0" cy="1880.0" r="0.28" fill="rgb(255,0,0)" />
<circle cx="1905.0" cy="1905.0" r="0.26" fill="rgb(255,0,0)" />
<circle cx="1930.0" cy="1930.0" r="0.26" fill="rgb(255,0,0)" />
<circle cx="1955.0" cy="1955.0" r="0.26" fill="rgb(255,0,0)" />
<circle cx="1980.0" cy="1980.0" r="0.26" fill="rgb(255,0,0)" />
<circle cx="2005.0" cy="2005.0" r="0.26" fill="rgb(255,0,0)" />
<circle cx="2030.0" cy="2030.0" r="0.24" fill="rgb(255,0,0)" />
<circle cx="2055.0" cy="2055.0" r="0.24" fill="rgb(255,0,0)" />
<circle cx="2080.0" cy="2080.0" r="0.24" fill="rgb(255,0,0)" />
<circle cx="2105.0" cy="2105.0" r="0.24" fill="rgb(255,0,0)" />
<circle cx="2130.0" cy="2130.0" r="0.24" fill="rgb(255,0,0)" />
<circle cx="2155.0" cy="2155.0" r="0.22" fill="rgb(255,0,0)" />
<circle cx="2180.0" cy="2180.0" r="0.22" fill="rgb(255,0,0)" />
<circle cx="2205.0" cy="2205.0" r="0.22" fill="rgb(255,0,0)" />
<circle cx="2230.0" cy="2230.0" r="0.22" fill="rgb(255,0,0)" />
<circle cx="2255.0" cy="2255.0" r="0.22" fill="rgb(255,0,0)" />
<circle cx="2280.0" cy="2280.0" r="0.22" fill="rgb(255,0,0)" />
<circle cx="2305.0" cy="2305.0" r="0.22" fill="rgb(255,0,0)" />
<circle cx="2330.0" cy="2330.0" r="0.2" fill="rgb(255,0,0)" />
<circle cx="2355.0" cy="2355.0" r="0.2" fill="rgb(255,0,0)" />
<circle cx="2380.0" cy="2380.0" r="0.18" fill="rgb(255,0,0)" />
<circle cx="2405.0" cy="2405.0" r="0.18" fill="rgb(255,0,0)" />
<circle cx="2430.0" cy="2430.0" r="0.18" fill="rgb(255,0,0)" />
<circle cx="2455.0" cy="2455.0" r="0.16" fill="rgb(255,0,0)" />
<circle cx="2480.0" cy="2480.0" r="0.16" fill="rgb(255,0,0)" />
<circle cx="2505.0" cy="2505.0" r="0.16" fill="rgb(255,0,0)" />
<circle cx="2530.0" cy="2530.0" r="0.16" fill="rgb(255,0,0)" />
<circle cx="2555.0" cy="2555.0" r="0.16" fill="rgb(255,0,0)" />
<circle cx="2580.0" cy="2580.0" r="0.16" fill="rgb(255,0,0)" />
<circle cx="2605.0" cy="2605.0" r="0.14" fill="rgb(255,0,0)" />
<circle cx="2630.0" cy="2630.0" r="0.14" fill="rgb(255,0,0)" />
<circle cx="2655.0" cy="2655.0" r="0.14" fill="rgb(255,0,0)" />
<circle cx="2680.0" cy="2680.0" r="0.14" fill="rgb(255,0,0)" />
<circle cx="2705.0" cy="2705.0" r="0.14" fill="rgb(255,0,0)" />
<circle cx="2730.0" cy="2730.0" r="0.12" fill="rgb(255,0,0)" />
<circle cx="2755.0" cy="2755.0" r="0.12" fill="rgb(255,0,0)" />
<circle cx="2780.0" cy="2780.0" r="0.12" fill="rgb(255,0,0)" />
<circle cx="2805.0" cy="2805.0" r="0.12" fill="rgb(255,0,0)" />
<circle cx="2830.0" cy="2830.0" r="0.1" fill="rgb(255,0,0)" />
<circle cx="2855.0" cy="2855.0" r="0.1" fill="rgb(255,0,0)" />
<circle cx="2880.0" cy="2880.0" r="0.1" fill="rgb(255,0,0)" />
<circle cx="2905.0" cy="2905.0" r="0.1" fill="rgb(255,0,0)" />
<circle cx="2930.0" cy="2930.0" r="0.1" fill="rgb(255,0,0)" />
<circle cx="2955.0" cy="2955.0" r="0.1" fill="rgb(255,0,0)" />
<circle cx="2980.0" cy="2980.0" r="0.1" fill="rgb(255,0,0)" />
<circle cx="3005.0" cy="3005.0" r="0.1" fill="rgb(255,0,0)" />
<circle cx="3030.0" cy="3030.0" r="0.08" fill="rgb(255,0,0)" />
<circle cx="3055.0" cy="3055.0" r="0.08" fill="rgb(255,0,0)" />
<circle cx="3080.0" cy="3080.0" r="0.08" fill="rgb(255,0,0)" />
<circle cx="3105.0" cy="3105.0" r="0.08" fill="rgb(255,0,0)" />
<circle cx="3130.0" cy="3130.0" r="0.08" fill="rgb(255,0,0)" />
<circle cx="3155.0" cy="3155.0" r="0.08" fill="rgb(255,0,0)" />
<circle cx="3180.0" cy="3180.0" r="0.06" fill="rgb(255,0,0)" />
<circle cx="3205.0" cy="3205.0" r="0.06" fill="rgb(255,0,0)" />
<circle cx="3230.0" cy="3230.0" r="0.06" fill="rgb(255,0,0)" />
<circle cx="3255.0" cy="3255.0" r="0.06" fill="rgb(255,0,0)" />
<circle cx="3280.0" cy="3280.0" r="0.04" fill="rgb(255,0,0)" />
<circle cx="3305.0" cy="3305.0" r="0.04" fill="rgb(255,0,0)" />
<circle cx="3330.0" cy="3330.0" r="0.02" fill="rgb(255,0,0)" />
</svg>
